<?xml version="1.0" encoding="utf-8"?>
<!-- Generator: Adobe Illustrator 24.2.0, SVG Export Plug-In . SVG Version: 6.00 Build 0)  -->
<svg version="1.1" id="Layer_1" xmlns="http://www.w3.org/2000/svg" xmlns:xlink="http://www.w3.org/1999/xlink" x="0px" y="0px"
	 viewBox="0 0 419.9 73.6" style="enable-background:new 0 0 419.9 73.6;" xml:space="preserve">
<style type="text/css">
	.st0{fill:#312F30;}
	.st1{fill:#A2764F;}
</style>
<g>
	<g>
		<g>
			<path class="st0" d="M171,40.4h-6.2V19.7l-8.2,17.6H152l-8.2-17.6v20.7h-6.3V9.7h7.8l9,18.8l8.9-18.8h7.7V40.4z"/>
			<path class="st0" d="M184.7,13.9c3.1-3,7.1-4.4,11.8-4.4s8.6,1.5,11.8,4.5c3.1,3,4.7,6.7,4.7,11.1c0,4.4-1.6,8.2-4.7,11.2
				c-3.2,3-7.1,4.5-11.8,4.5s-8.6-1.5-11.8-4.5c-3.2-3-4.7-6.7-4.7-11.2C180,20.6,181.5,16.9,184.7,13.9z M196.5,15.6
				c-2.6,0-4.8,0.9-6.7,2.8c-1.9,1.8-2.8,4.1-2.8,6.8c0,2.7,0.9,5,2.8,6.8c1.9,1.9,4.1,2.8,6.7,2.8c2.6,0,4.8-0.9,6.6-2.8
				c1.8-1.9,2.7-4.1,2.7-6.8c0-2.7-0.9-5-2.7-6.8C201.3,16.5,199.1,15.6,196.5,15.6z"/>
			<path class="st0" d="M240.8,40.4l-4.9-8.8h-0.7h-6.4v8.8h-6.9V9.7h13.3c4,0,7.1,0.9,9.3,2.8c2.2,1.9,3.3,4.5,3.3,7.9
				c0,4.8-1.9,8.1-5.8,9.9l6.5,10.1H240.8z M228.9,25.9h6.4c1.9,0,3.4-0.4,4.5-1.3c1-0.9,1.6-2.2,1.6-3.9c0-1.7-0.5-3-1.6-3.8
				c-1-0.9-2.5-1.3-4.5-1.3h-6.4V25.9z"/>
			<path class="st0" d="M280.7,15.6h-9.4v24.8h-6.9V15.6h-9.4V9.7h25.7V15.6z"/>
			<path class="st0" d="M295.8,34.4H309v6.1h-20.1V9.7h6.9V34.4z"/>
			<path class="st0" d="M320,13.9c3.1-3,7.1-4.4,11.8-4.4s8.6,1.5,11.8,4.5c3.1,3,4.7,6.7,4.7,11.1c0,4.4-1.6,8.2-4.7,11.2
				c-3.2,3-7.1,4.5-11.8,4.5s-8.6-1.5-11.8-4.5c-3.2-3-4.7-6.7-4.7-11.2C315.3,20.6,316.9,16.9,320,13.9z M331.9,15.6
				c-2.6,0-4.8,0.9-6.7,2.8c-1.9,1.8-2.8,4.1-2.8,6.8c0,2.7,0.9,5,2.8,6.8c1.9,1.9,4.1,2.8,6.7,2.8c2.6,0,4.8-0.9,6.6-2.8
				c1.8-1.9,2.7-4.1,2.7-6.8c0-2.7-0.9-5-2.7-6.8C336.7,16.5,334.5,15.6,331.9,15.6z"/>
			<path class="st0" d="M370.6,9.5c2.2,0,4.4,0.5,6.6,1.4c2.2,0.9,4,2.2,5.5,3.7l-4,4.9c-1.1-1.2-2.3-2.2-3.7-2.9
				c-1.4-0.7-2.9-1.1-4.3-1.1c-2.6,0-4.9,0.9-6.7,2.7c-1.8,1.8-2.7,4.1-2.7,6.7c0,2.7,0.9,4.9,2.7,6.7c1.8,1.8,4,2.7,6.7,2.7
				c1.4,0,2.8-0.3,4.2-1c1.4-0.6,2.7-1.5,3.8-2.6l4.1,4.4c-1.6,1.7-3.6,3-5.8,4c-2.2,1-4.4,1.5-6.7,1.5c-4.6,0-8.4-1.5-11.5-4.5
				s-4.6-6.7-4.6-11.2c0-4.4,1.6-8.1,4.7-11.1C362.1,11,366,9.5,370.6,9.5z"/>
			<path class="st0" d="M411.5,40.4l-8.8-12.5l-4.4,4.9v7.6h-6.9V9.7h6.9v14l12.8-14h8l-11.5,12.8l12.3,17.9H411.5z"/>
		</g>
		<g>
			<path class="st0" d="M213.2,60.3H209v11h-3.1v-11h-4.2v-2.6h11.4V60.3z"/>
			<path class="st0" d="M233.5,71.3h-3.1V57.7h3.1V71.3z"/>
			<path class="st0" d="M267,71.3h-2.8v-9.2l-3.6,7.8h-2l-3.6-7.8v9.2h-2.8V57.7h3.5l4,8.4l4-8.4h3.4V71.3z"/>
			<path class="st0" d="M285.6,57.7h6.3c1.5,0,2.7,0.3,3.6,0.9s1.3,1.4,1.3,2.5c0,0.7-0.2,1.4-0.6,1.9c-0.4,0.5-1,0.9-1.7,1.1
				c0.9,0.2,1.6,0.6,2.1,1.2c0.5,0.6,0.8,1.4,0.8,2.3c0,1.2-0.5,2.1-1.4,2.8s-2.2,1-3.8,1h-6.5V57.7z M288.7,60.2v3h3
				c0.6,0,1-0.1,1.4-0.4c0.3-0.3,0.5-0.6,0.5-1.1c0-0.5-0.2-0.8-0.5-1.1c-0.3-0.3-0.8-0.4-1.4-0.4H288.7z M288.7,65.6v3.3h3
				c0.7,0,1.3-0.1,1.7-0.4c0.4-0.3,0.6-0.7,0.6-1.2c0-0.5-0.2-0.9-0.6-1.2c-0.4-0.3-1-0.4-1.7-0.4H288.7z"/>
			<path class="st0" d="M325.5,60.2h-7.3v3h6.6v2.6h-6.6v3h7.5v2.6h-10.6V57.7h10.4V60.2z"/>
			<path class="st0" d="M352.2,71.3l-2.2-3.9h-0.3h-2.8v3.9h-3.1V57.7h5.9c1.8,0,3.2,0.4,4.1,1.2c1,0.8,1.5,2,1.5,3.5
				c0,2.1-0.9,3.6-2.6,4.4l2.9,4.5H352.2z M346.9,64.9h2.8c0.9,0,1.5-0.2,2-0.6c0.5-0.4,0.7-1,0.7-1.7c0-0.8-0.2-1.3-0.7-1.7
				c-0.5-0.4-1.1-0.6-2-0.6h-2.8V64.9z"/>
		</g>
	</g>
	<polygon class="st1" points="93.2,28.3 93.2,28.3 92.8,27.7 91.9,26.4 91.9,26.4 85.6,17.2 85.6,17.2 73.9,0 55.9,26.4 49.6,17.2 
		49.6,17.2 37.9,0 0,55.5 12.3,73.6 48.4,20.8 54,29.1 36,55.5 48.3,73.6 84.4,20.8 90,29.1 72,55.5 84.4,73.6 104.2,44.5 	"/>
</g>
</svg>
