<svg class="icon" version="1.1" xmlns="http://www.w3.org/2000/svg"viewBox="0 0 48.57 60.84"><circle class="st0" cx="24.34" cy="24.67" r="20.77"/><path class="st1" d="M23.42,0.02C11.32,0.44,1.28,9.87,0.12,21.91c-0.24,2.41-0.1,4.74,0.32,6.97l0,0c0,0,0.04,0.26,0.16,0.76
	c0.37,1.67,0.94,3.29,1.64,4.81c2.43,5.76,8.06,15.41,20.69,25.9c0.77,0.65,1.91,0.65,2.7,0c12.63-10.48,18.26-20.12,20.71-25.91
	c0.71-1.52,1.26-3.13,1.63-4.82c0.11-0.49,0.16-0.76,0.16-0.76l0,0c0.29-1.5,0.44-3.03,0.44-4.6C48.57,10.57,37.22-0.47,23.42,0.02z
	 M24.28,42.18c-9.75,0-17.65-7.89-17.65-17.63c0-9.74,7.9-17.63,17.65-17.63c9.75,0,17.65,7.89,17.65,17.63
	C41.92,34.29,34.03,42.18,24.28,42.18z"/><path class="st2" d="M32.6,21.52L32.6,21.52l-0.07-0.11l-0.18-0.27h0l-1.28-1.87l0,0l-2.4-3.52l-3.68,5.38l-1.28-1.87l0,0l-2.4-3.52
	l-7.73,11.32l2.52,3.69L23.46,20l1.16,1.69l-3.68,5.39l2.52,3.69L30.81,20l1.16,1.7l-3.67,5.38l2.52,3.69l4.05-5.94L32.6,21.52z"/></svg>