<svg xmlns="http://www.w3.org/2000/svg" width="16" height="11" viewBox="0 0 16 11">
  <defs>
    <style>
      .cls-1 {
        fill: #312f30;
        fill-rule: evenodd;
      }
    </style>
  </defs>
  <path class="cls-1" d="M1523.02,4015.53a0.567,0.567,0,0,1,.8,0,0.543,0.543,0,0,1,0,.78l-4.09,3.99h13.51a0.559,0.559,0,0,1,.57.55,0.574,0.574,0,0,1-.57.56h-13.51l4.09,3.98a0.543,0.543,0,0,1,0,.78,0.55,0.55,0,0,1-.8,0l-5.07-4.93a0.562,0.562,0,0,1,0-.78Z" transform="translate(-1517.81 -4015.38)"/>
</svg>
