<svg xmlns="http://www.w3.org/2000/svg" width="51.78" height="59.44" viewBox="0 0 51.78 59.44">
  <defs>
    <style>
      .cls-1 {
        fill: #a2764f;
        fill-rule: evenodd;
      }
    </style>
  </defs>
  <path class="cls-1" d="M1361.75,2598.04l4.74-9.27a1.217,1.217,0,0,0-.04-1.17,1.171,1.171,0,0,0-1-.57h-22.11a1.171,1.171,0,0,0-1,.57,1.217,1.217,0,0,0-.04,1.17l4.76,9.27c-3.87,4.88-22.36,29-17.87,38.36,3.58,7.43,15.82,10.07,25.2,10.07h0.01c9.38,0,21.62-2.64,25.2-10.07h0C1384.09,2627.04,1365.61,2602.92,1361.75,2598.04Zm1.77-8.63-3.88,7.58h-10.48l-3.89-7.58h18.25Zm13.97,45.94c-2.52,5.23-11.8,8.75-23.1,8.75s-20.57-3.52-23.09-8.74c-3.38-7.05,11.31-27.94,17.71-35.99h10.79C1366.19,2607.42,1380.88,2628.3,1377.49,2635.35Zm-23.1-21.28a3.216,3.216,0,0,1,3.2,3.23,1.175,1.175,0,1,0,2.35,0,5.612,5.612,0,0,0-4.38-5.48v-1.07a1.17,1.17,0,1,0-2.34,0v1.07a5.622,5.622,0,0,0,1.17,11.1,3.24,3.24,0,1,1-3.19,3.24,1.17,1.17,0,1,0-2.34,0,5.608,5.608,0,0,0,4.36,5.49v1.06a1.17,1.17,0,1,0,2.34,0v-1.06a5.625,5.625,0,0,0-1.17-11.11A3.235,3.235,0,0,1,1354.39,2614.07Z" transform="translate(-1328.5 -2587.03)"/>
</svg>
