<svg xmlns="http://www.w3.org/2000/svg" width="57" height="57.03" viewBox="0 0 57 57.03">
  <defs>
    <style>
      .cls-1 {
        fill: #a2764f;
        fill-rule: evenodd;
      }
    </style>
  </defs>
  <path class="cls-1" d="M1502.52,7454.38a1.118,1.118,0,0,0,1.12-1.12v-3.34a1.116,1.116,0,0,0-1.12-1.11h-13.36a1.107,1.107,0,0,0-1.11,1.11v26.73a1.11,1.11,0,0,0,1.11,1.12h13.36a1.115,1.115,0,1,0,0-2.23h-12.25v-4.46h5.57a1.11,1.11,0,1,0,0-2.22h-5.57v-4.46h11.14v5.57a1.115,1.115,0,0,0,2.23,0v-10.02a1.115,1.115,0,1,0-2.23,0v2.22h-11.14v-11.13h4.46v5.56a1.11,1.11,0,1,0,2.22,0v-5.56h4.46v2.22A1.116,1.116,0,0,0,1502.52,7454.38Zm-5.57,28.51a1.115,1.115,0,1,1-1.11,1.11A1.116,1.116,0,0,1,1496.95,7482.89Zm17.94-47.45a6.137,6.137,0,0,0-6.13,6.13v0.56h-25.84v-4.57a9.465,9.465,0,1,0-18.93,0v38.09a9.483,9.483,0,0,0,9.47,9.47h18.48a1.115,1.115,0,1,0,0-2.23h-12.4a9.41,9.41,0,0,0,3.38-7.24v-31.3h25.84v34.64a1.115,1.115,0,0,0,2.23,0,3.9,3.9,0,1,1,3.9,3.9h-12.92a1.115,1.115,0,1,0,0,2.23h12.92a6.135,6.135,0,0,0,6.12-6.13v-37.42A6.135,6.135,0,0,0,1514.89,7435.44Zm-41.43,47.45a7.24,7.24,0,0,1-2.79-13.92v5.01a4.456,4.456,0,0,0,4.46,4.45h5.01A7.271,7.271,0,0,1,1473.46,7482.89Zm7.21-6.68h-5.54a2.232,2.232,0,0,1-2.23-2.23v-5.55c0.18-.01.37-0.02,0.56-0.02a7.242,7.242,0,0,1,7.23,7.24A5.24,5.24,0,0,1,1480.67,7476.21Zm0.02-6.65a9.433,9.433,0,0,0-14.47,0v-32a7.235,7.235,0,1,1,14.47,0v32Zm38.09,4.71a6.118,6.118,0,0,0-7.79,0v-32.7a3.9,3.9,0,1,1,7.79,0v32.7Z" transform="translate(-1464 -7428.09)"/>
</svg>
