<svg xmlns="http://www.w3.org/2000/svg" width="55" height="46" viewBox="0 0 55 46">
  <defs>
    <style>
      .cls-1 {
        fill: #312f30;
        fill-rule: evenodd;
      }
    </style>
  </defs>
  <path class="cls-1" d="M664.083,3744H610.917a0.917,0.917,0,0,0-.917.92v44.16a0.917,0.917,0,0,0,.917.92h53.166a0.917,0.917,0,0,0,.917-0.92v-44.16A0.917,0.917,0,0,0,664.083,3744ZM654,3745.84h3.667v20.24H654v-20.24Zm-5.5,0h3.667v20.24H648.5v-20.24Zm-5.5,0h3.667v20.24H643v-20.24Zm-31.167,0h23.834v3.68H611.833v-3.68Zm0,5.52h23.834v3.68H611.833v-3.68Zm0,5.52h23.834v3.68H611.833v-3.68Zm3.667,31.28h-3.667v-20.24H615.5v20.24Zm5.5,0h-3.667v-20.24H621v20.24Zm5.5,0h-3.667v-20.24H626.5v20.24Zm5.5,0h-3.667v-20.24H632v20.24Zm-20.167-22.08v-3.68h23.834v3.68H611.833Zm25.667,22.08h-3.667v-20.24H637.5v20.24Zm0-22.08v-20.24h3.667v20.24H637.5Zm25.667,22.08H639.333v-3.68h23.834v3.68Zm0-5.52H639.333v-3.68h23.834v3.68Zm0-5.52H639.333v-3.68h23.834v3.68Zm0-5.52H639.333v-3.68h23.834v3.68Zm0-5.52H659.5v-20.24h3.667v20.24Z" transform="translate(-610 -3744)"/>
</svg>
