<svg xmlns="http://www.w3.org/2000/svg" width="43.25" height="52.56" viewBox="0 0 43.25 52.56">
  <defs>
    <style>
      .cls-1 {
        fill: #a2764f;
        fill-rule: evenodd;
      }
    </style>
  </defs>
  <path class="cls-1" d="M675.107,7436.95a46.8,46.8,0,0,1-19.957-6.27,1.171,1.171,0,0,0-1.147,0,46.805,46.805,0,0,1-19.957,6.27,1.171,1.171,0,0,0-1.1,1.17v22.19a17.8,17.8,0,0,0,3.409,10.38,28.9,28.9,0,0,0,7.325,7.02,45.992,45.992,0,0,0,7.221,4.01,24.73,24.73,0,0,0,3.672,1.36,1.1,1.1,0,0,0,.358-0.06,44.58,44.58,0,0,0,10.534-5.31,28.9,28.9,0,0,0,7.325-7.02,17.8,17.8,0,0,0,3.409-10.38v-22.19A1.171,1.171,0,0,0,675.107,7436.95Zm-1.242,23.36c0,5.81-3.255,11-9.673,15.44a44.049,44.049,0,0,1-9.616,4.93,44.029,44.029,0,0,1-9.61-4.93c-6.422-4.44-9.678-9.63-9.678-15.44V7439.2a49.263,49.263,0,0,0,19.289-6.17,49.248,49.248,0,0,0,19.288,6.17v21.11Zm-20.192-21.45c-0.031.03-3.14,3.83-6.205,8.4-4.2,6.27-6.335,11-6.335,14.04a13.444,13.444,0,0,0,26.887,0c0-3.04-2.131-7.77-6.335-14.04-3.065-4.57-6.174-8.37-6.2-8.4A1.164,1.164,0,0,0,653.673,7438.86Zm0.9,33.54a1.824,1.824,0,0,1-1.818-1.82,9.588,9.588,0,0,1,1.818-3.35,9.686,9.686,0,0,1,1.819,3.35A1.824,1.824,0,0,1,654.576,7472.4Zm11.106-11.1a11.067,11.067,0,0,1-3.512,8.09,8,8,0,0,0,.473-2.71,10.464,10.464,0,0,0-1.477-4.57,1.17,1.17,0,0,0-2.071,1.09,8.224,8.224,0,0,1,1.21,3.48,5.7,5.7,0,0,1-1.572,3.93v-0.03c0-1.92-2.492-5.08-3.256-6a1.175,1.175,0,0,0-1.8,0c-0.764.92-3.256,4.08-3.256,6v0.03a5.71,5.71,0,0,1-1.572-3.94c0-2.18,3.211-7.03,5.725-10.25,0.081,0.11.167,0.22,0.256,0.33a1.168,1.168,0,1,0,1.856-1.42c-0.709-.92-1.188-1.5-1.208-1.53a1.175,1.175,0,0,0-1.8,0c-0.733.89-7.166,8.77-7.166,12.87a8.014,8.014,0,0,0,.473,2.72,11.067,11.067,0,0,1-3.512-8.09c0-4.79,7.329-15.06,11.106-19.84C658.354,7446.24,665.682,7456.51,665.682,7461.3Zm-8.465-1.26a1.176,1.176,0,0,0,1.654,0,1.166,1.166,0,0,0,0-1.65,1.176,1.176,0,0,0-1.654,0A1.166,1.166,0,0,0,657.217,7460.04Z" transform="translate(-632.938 -7430.53)"/>
</svg>
