<svg xmlns="http://www.w3.org/2000/svg" width="73" height="73" viewBox="0 0 73 73">
  <defs>
    <style>
      .cls-1 {
        fill: #a2764f;
        fill-rule: evenodd;
      }
    </style>
  </defs>
  <path class="cls-1" d="M1311.5,6096.39a35.11,35.11,0,1,1-35.11,35.11,35.149,35.149,0,0,1,35.11-35.11m0-1.39a36.5,36.5,0,1,0,36.5,36.5,36.5,36.5,0,0,0-36.5-36.5h0Zm0,23.45a13.05,13.05,0,1,0,13.05,13.05A13.059,13.059,0,0,0,1311.5,6118.45Zm0,24.88a11.83,11.83,0,1,1,11.83-11.83A11.847,11.847,0,0,1,1311.5,6143.33Zm6.43-17.42a0.591,0.591,0,0,0-.42.21l-7.57,8.52-4.53-3.62a0.59,0.59,0,0,0-.45-0.13,0.634,0.634,0,0,0-.41.23,0.59,0.59,0,0,0-.13.45,0.611,0.611,0,0,0,.23.41l4.97,3.98a0.612,0.612,0,0,0,.39.13,0.629,0.629,0,0,0,.46-0.2l7.96-8.96a0.593,0.593,0,0,0,.15-0.44,0.581,0.581,0,0,0-.2-0.42A0.64,0.64,0,0,0,1317.93,6125.91Z" transform="translate(-1275 -6095)"/>
</svg>
