<svg xmlns="http://www.w3.org/2000/svg" width="73" height="73" viewBox="0 0 73 73">
  <defs>
    <style>
      .cls-1 {
        fill: #a2764f;
        fill-rule: evenodd;
      }
    </style>
  </defs>
  <path class="cls-1" d="M711.5,6096.39a35.11,35.11,0,1,1-35.114,35.11,35.152,35.152,0,0,1,35.114-35.11m0-1.39a36.5,36.5,0,1,0,36.5,36.5,36.5,36.5,0,0,0-36.5-36.5h0Zm13.977,25.68a6.117,6.117,0,0,0-4.969-1.55,8.233,8.233,0,0,0-4.773,3.17,8.289,8.289,0,0,0-5.15-2.53,6.141,6.141,0,0,0-4.726,2.18,5.727,5.727,0,0,0-1.628,3.75,6.432,6.432,0,0,0-3.648-.96,6.285,6.285,0,0,0-4.183,2.19,5.964,5.964,0,0,0-1.47,5.55c1.036,4.96,7.244,10.77,12.23,12.88a0.639,0.639,0,0,0,.586-0.03,25.348,25.348,0,0,0,6.645-6.09,17.321,17.321,0,0,0,2.228,1.16,0.67,0.67,0,0,0,.586-0.03c4.639-2.73,10.072-9.32,10.45-14.38A5.959,5.959,0,0,0,725.477,6120.68Zm-18.109,23.36c-4.605-2.09-10.228-7.35-11.16-11.83a4.644,4.644,0,0,1,1.141-4.38,5.032,5.032,0,0,1,3.32-1.77c2.8-.18,5.143,2.62,5.165,2.65a0.646,0.646,0,0,0,1.056-.07s1.975-3.11,4.8-3.3a5.079,5.079,0,0,1,3.521,1.32,4.66,4.66,0,0,1,1.707,4.2C716.557,6135.42,711.663,6141.37,707.368,6144.04Zm18.985-18.15c-0.358,4.55-5.2,10.5-9.534,13.17-0.572-.27-1.131-0.56-1.673-0.88a15.518,15.518,0,0,0,3.031-7.21,5.977,5.977,0,0,0-2.178-5.32,6.286,6.286,0,0,0-4.391-1.61c-2.573.17-4.44,2.15-5.312,3.23a7.51,7.51,0,0,0-.694-0.61,4.566,4.566,0,0,1,1.232-3.79,4.885,4.885,0,0,1,3.726-1.77c2.623,0.09,4.751,2.63,4.753,2.66a0.646,0.646,0,0,0,1.056-.07s1.779-2.82,4.368-3.25a4.865,4.865,0,0,1,3.931,1.28A4.651,4.651,0,0,1,726.353,6125.89Z" transform="translate(-675 -6095)"/>
</svg>
