<svg xmlns="http://www.w3.org/2000/svg" width="72" height="72" viewBox="0 0 72 72">
  <defs>
    <style>
      .cls-1 {
        fill: #a2764f;
        fill-rule: evenodd;
      }
    </style>
  </defs>
  <path class="cls-1" d="M1011,6097.37A34.63,34.63,0,1,1,976.367,6132,34.663,34.663,0,0,1,1011,6097.37m0-1.37a36,36,0,1,0,36,36,36,36,0,0,0-36-36h0Zm13.62,31.31h0l-0.1-.16-0.31-.46h0l-2.08-3.08h0l-3.9-5.79-5.98,8.86-2.08-3.07h0l-3.9-5.79L993.7,6136.46l4.1,6.08,11.956-17.74,1.88,2.79-5.98,8.87,4.1,6.08,11.96-17.74,1.88,2.79-5.98,8.87,4.1,6.08,6.59-9.78Zm-26.826,13.41-2.87-4.26,11.346-16.82,2.87,4.25Zm11.956,0-2.87-4.26,11.35-16.82,2.87,4.25Zm9.09-4.26,5.37-7.96,2.87,4.26-5.37,7.96Z" transform="translate(-975 -6096)"/>
</svg>
