<svg xmlns="http://www.w3.org/2000/svg" width="72" height="72" viewBox="0 0 72 72">
  <defs>
    <style>
      .cls-1 {
        fill: #a2764f;
        fill-rule: evenodd;
      }
    </style>
  </defs>
  <path class="cls-1" d="M412,6097.37A34.63,34.63,0,1,1,377.367,6132,34.667,34.667,0,0,1,412,6097.37m0-1.37a36,36,0,1,0,36,36,36,36,0,0,0-36-36h0Zm17.646,28.24a1.793,1.793,0,0,0-1.4-.47l-3.093.28a4.281,4.281,0,0,1-3.4-1.23l-1.971-1.4c-0.111-.07-0.228-0.14-0.348-0.21l-1.607-1.08a7.9,7.9,0,0,0-4.419-1.35h-5.306a2.446,2.446,0,0,0-2.024,1.08l-0.52.78-3.57.45a6,6,0,0,1-1.843-.05l-4.245-.77a1.8,1.8,0,0,0-1.5.39,1.828,1.828,0,0,0-.656,1.4v10.7a1.821,1.821,0,0,0,1.04,1.65l-0.044.13a2.416,2.416,0,0,0,.588,2.49l3.255,3.26a5.494,5.494,0,0,0,2.139,1.32l4.585,1.53a5.431,5.431,0,0,0,3.336.03l1.1,1.05a3.64,3.64,0,0,0,2.5,1,3.822,3.822,0,0,0,.892-0.11l4.309-1.08a7.1,7.1,0,0,0,2.71-1.32l2.25-1.75a3.643,3.643,0,0,0,1.33-3.58l4.956-1.77a2.421,2.421,0,0,0,1.528-2.26v-7.77A1.8,1.8,0,0,0,429.646,6124.24Zm-23.939,17.74-4.586-1.53a4.338,4.338,0,0,1-1.663-1.02l-3.256-3.26a1.2,1.2,0,0,1-.293-1.24l0.113-.34h3.091a1.231,1.231,0,0,1,.836.33l7.634,7.23A4.118,4.118,0,0,1,405.707,6141.98Zm15.972-1.98-0.172.14-4.733-7.69a0.612,0.612,0,0,0-1.053.02,0.609,0.609,0,0,0,.017.61l4.8,7.81-1.112.86a5.781,5.781,0,0,1-1.538.87l-3.547-5.91a0.606,0.606,0,1,0-1.042.62l3.384,5.64-2.609.66-2.8-3.92a0.581,0.581,0,0,0-.554-0.25,0.6,0.6,0,0,0-.436.95l2.519,3.53a2.445,2.445,0,0,1-2.208-.6l-9.815-9.3a2.424,2.424,0,0,0-1.672-.67h-3.53a0.607,0.607,0,0,1-.607-0.61v-10.7a0.613,0.613,0,0,1,.218-0.47,0.634,0.634,0,0,1,.5-0.13l4.246,0.77a7.126,7.126,0,0,0,2.21.07l2.61-.33-0.341.57a2.422,2.422,0,0,0,3.6,3.13l1.786-1.42h2.114a1.207,1.207,0,0,1,.808.31l4.739,4.21a1.328,1.328,0,0,1,.241.29l4.581,7.79A2.436,2.436,0,0,1,421.679,6140Zm7.345-6.65a1.193,1.193,0,0,1-.742,1.12l-4.95,1.77v-0.01l-4.581-7.78a2.46,2.46,0,0,0-.48-0.59l-4.739-4.21a2.41,2.41,0,0,0-1.616-.61H410.2v-0.61a0.608,0.608,0,1,0-1.216,0v0.92l-1.722,1.37a1.21,1.21,0,0,1-1.8-1.56l0.987-1.64s0,0,0-.01l0.65-.97a1.211,1.211,0,0,1,1.012-.54h5.306a6.566,6.566,0,0,1,3.739,1.14l1.638,1.1,0.068,0.04a2.012,2.012,0,0,1,.232.14l1.847,1.3a5.465,5.465,0,0,0,4.326,1.54l3.093-.28a0.606,0.606,0,0,1,.465.15,0.617,0.617,0,0,1,.2.45v7.77h0Z" transform="translate(-376 -6096)"/>
</svg>
