<svg xmlns="http://www.w3.org/2000/svg" width="56.5" height="59.44" viewBox="0 0 56.5 59.44">
  <defs>
    <style>
      .cls-1 {
        fill: #a2764f;
        fill-rule: evenodd;
      }
    </style>
  </defs>
  <path class="cls-1" d="M829.368,2599.75l6.56-4.09a3.748,3.748,0,0,1,3.274-.34,1.755,1.755,0,0,0,1.544-.16l10.971-6.85a8.546,8.546,0,0,1,8.434-.32l8.222,4.29a0.986,0.986,0,0,1,.42,1.33,0.941,0.941,0,0,1-.354.38l-6.982,4.36,2.039,3.27a0.987,0.987,0,0,1-.315,1.36l-0.718.45,22.147,35.45a4.935,4.935,0,0,1-8.313,5.32c-0.019-.03-0.038-0.06-0.056-0.09L854.1,2608.65l-0.718.45a0.99,0.99,0,0,1-1.361-.32l-2.04-3.26-1.987,1.24a1.765,1.765,0,0,0-.82,1.31,3.777,3.777,0,0,1-1.739,2.8l-6.56,4.09a0.988,0.988,0,0,1-1.361-.31h0l-8.455-13.54a0.988,0.988,0,0,1,.314-1.36h0Zm48.552,43.31a2.958,2.958,0,0,0,5.038-3.1l-0.022-.03-22.148-35.46-5.017,3.13Zm-24.752-36.16,8.129-5.07-1.516-2.43-8.13,5.07Zm-6.226-1.82,18.986-11.85-6.691-3.49a6.56,6.56,0,0,0-6.474.25l-10.97,6.85a3.712,3.712,0,0,1-3.274.33,1.642,1.642,0,0,0-.538-0.09l7.072,11.32a1.734,1.734,0,0,0,.149-0.52,3.781,3.781,0,0,1,1.74-2.8h0Zm-8.282,7.68,4.884-3.04-7.408-11.86-4.884,3.04Z" transform="translate(-828.906 -2587.03)"/>
</svg>
