<svg xmlns="http://www.w3.org/2000/svg" width="69" height="60" viewBox="0 0 69 60">
  <defs>
    <style>
      .cls-1 {
        fill: #a2764f;
        fill-rule: evenodd;
      }
    </style>
  </defs>
  <path class="cls-1" d="M485.95,3737a1.153,1.153,0,0,0-1.15,1.15v5.77H434.2v-5.77a1.153,1.153,0,0,0-1.15-1.15,8.069,8.069,0,0,0-8.05,8.07v44.09a7.836,7.836,0,0,0,7.808,7.84h53.383a7.834,7.834,0,0,0,7.809-7.84v-44.09A8.069,8.069,0,0,0,485.95,3737Zm-58.65,8.07a5.768,5.768,0,0,1,4.6-5.65v41.51a7.984,7.984,0,0,0-4.6,2.34v-38.2Zm64.4,44.09a5.535,5.535,0,0,1-5.509,5.53H432.808a5.531,5.531,0,0,1-5.508-5.53v-0.24a5.774,5.774,0,0,1,5.75-5.77,1.147,1.147,0,0,0,1.15-1.15v-35.77h50.6V3782a1.147,1.147,0,0,0,1.15,1.15,5.774,5.774,0,0,1,5.75,5.77v0.24Zm0-5.89a7.987,7.987,0,0,0-4.6-2.34v-41.51a5.769,5.769,0,0,1,4.6,5.65v38.2Zm-10.35-30.12H448a1.156,1.156,0,0,0-1.15,1.16v8.07h-9.2a1.156,1.156,0,0,0-1.15,1.16v23.07a1.156,1.156,0,0,0,1.15,1.16h27.6a1.156,1.156,0,0,0,1.15-1.16v-15h8.05a1.15,1.15,0,0,0,0-2.3h-20.7a1.147,1.147,0,0,0-1.15,1.15v5.77a1.15,1.15,0,1,0,2.3,0v-4.62h9.2v13.85h-9.2v-4.62a1.15,1.15,0,0,0-2.3,0v4.62H438.8v-9.23H448a1.155,1.155,0,0,0,0-2.31h-9.2v-9.23H448a1.153,1.153,0,0,0,1.15-1.15v-8.08H464.1v9.23a1.15,1.15,0,1,0,2.3,0v-9.23h5.829a9.232,9.232,0,0,0,7.971,8v22H471a1.155,1.155,0,0,0,0,2.31h10.35a1.156,1.156,0,0,0,1.15-1.16v-32.3A1.156,1.156,0,0,0,481.35,3753.15Zm-6.8,2.31H480.2v5.66A6.907,6.907,0,0,1,474.553,3755.46Z" transform="translate(-425 -3737)"/>
</svg>
