<svg xmlns="http://www.w3.org/2000/svg" width="63" height="45" viewBox="0 0 63 45">
  <defs>
    <style>
      .cls-1 {
        fill: #a2764f;
        fill-rule: evenodd;
      }
    </style>
  </defs>
  <path class="cls-1" d="M1379.32,2822.27h0l-0.19-.28-0.57-.85h0l-3.79-5.61h0l-7.1-10.54-10.89,16.15-3.78-5.61h0l-7.1-10.54-22.9,33.95,7.46,11.06,21.78-32.29,3.42,5.08-10.89,16.15,7.46,11.06,21.78-32.29,3.43,5.09-10.89,16.14,7.46,11.06,12-17.79Zm-48.86,24.42-5.22-7.75,20.66-30.64,5.22,7.76Zm21.77,0-5.22-7.75,20.66-30.64,5.22,7.76Zm16.55-7.75,9.78-14.49,5.22,7.76-9.77,14.48Z" transform="translate(-1323 -2805)"/>
</svg>
