<svg xmlns="http://www.w3.org/2000/svg" width="59.56" height="56.47" viewBox="0 0 59.56 56.47">
  <defs>
    <style>
      .cls-1 {
        fill: #a2764f;
        fill-rule: evenodd;
      }
    </style>
  </defs>
  <path class="cls-1" d="M1089.46,7469.02a1.16,1.16,0,1,0,1.16,1.16A1.163,1.163,0,0,0,1089.46,7469.02Zm-10.01-20.46a1.165,1.165,0,1,0-1.16,1.16A1.161,1.161,0,0,0,1079.45,7448.56Zm-12.33,22.78a1.16,1.16,0,1,0-1.17-1.16A1.161,1.161,0,0,0,1067.12,7471.34Zm40.26,5.53-6.29-2.79v-25.52a1.162,1.162,0,0,0-.71-1.07l-20.93-8.99v-8.54a1.165,1.165,0,0,0-2.33,0v8.54l-20.92,8.99a1.161,1.161,0,0,0-.72,1.07v25.52l-6.29,2.79a1.154,1.154,0,0,0-.59,1.53,1.174,1.174,0,0,0,1.54.59l6.51-2.89,21.18,9.1a1.175,1.175,0,0,0,.92,0l21.17-9.1,6.52,2.89A1.16,1.16,0,1,0,1107.38,7476.87Zm-30.26-35.84v2.88a1.165,1.165,0,1,0,2.33,0v-2.88l17.53,7.53-18.69,8.04-18.7-8.04Zm-13.19,30.57a1.165,1.165,0,0,0-1.54-.59l-4.58,2.03v-22.71l19.31,8.3v23.73l-17.57-7.55,3.79-1.68A1.166,1.166,0,0,0,1063.93,7471.6Zm15.52,10.76v-23.73l19.32-8.3v22.71l-4.59-2.03a1.16,1.16,0,0,0-.94,2.12l3.78,1.68Z" transform="translate(-1048.5 -7428.81)"/>
</svg>
