<svg xmlns="http://www.w3.org/2000/svg" width="53" height="53" viewBox="0 0 53 53">
  <defs>
    <style>
      .cls-1 {
        fill: #a2764f;
        fill-rule: evenodd;
      }
    </style>
  </defs>
  <path class="cls-1" d="M921.054,2865H869.941a0.941,0.941,0,0,1-.943-0.94v-51.11a0.949,0.949,0,0,1,.943-0.95h51.113a0.949,0.949,0,0,1,.942.95v51.11A0.941,0.941,0,0,1,921.054,2865Zm-12.43-1.88h11.487v-11.49l-10.655,10.66h-0.01Zm-14.67,0h12l1.494-1.5-6-6Zm-13.7,0h11.031l16.383-16.39-5.515-5.51-17.4,17.4h0Zm-9.375,0h6.709l5.169-5.17-5.791-5.79-6.087,6.08v4.88Zm31.9-8.83,6,6,11.326-11.32v-12.01l-10.44,10.44h0Zm-24.48-3.47,5.791,5.8,28.9-28.91-5.791-5.79-11.331,11.33h0Zm-7.42-7.9v12.66l5.411-5.41a0.094,0.094,0,0,1,.01-0.01c0-.01.006-0.01,0.009-0.01l17.56-17.56-6.2-6.2Zm32.606-3.04,5.516,5.52,11.079-11.08a0.048,0.048,0,0,1,.027-0.02v-11.04Zm-32.606-12.34v12.73l7.463-7.34-6.395-6.4Zm2.441-2.3,6.366,6.37,17.936-17.66H885.308Zm15.694-.17,6.188,6.19,17.367-17.37h-12.2Zm19.521-4.48,5.79,5.79,5.782-5.78v-6.71h-4.873Zm-37.656-6.7v11.06l0.353-.33a0.333,0.333,0,0,1,.063-0.07,0.763,0.763,0,0,1,.115-0.1l11.211-10.56H870.883Z" transform="translate(-869 -2812)"/>
</svg>
