<svg xmlns="http://www.w3.org/2000/svg" width="46.5" height="51.12" viewBox="0 0 46.5 51.12">
  <defs>
    <style>
      .cls-1 {
        fill: #a2764f;
        fill-rule: evenodd;
      }
    </style>
  </defs>
  <path class="cls-1" d="M262.673,7439.35l-0.068-.01a62.312,62.312,0,0,1-21.833-8.27,0.989,0.989,0,0,0-1.047,0,61.17,61.17,0,0,1-21.7,8.24l-0.2.04a1,1,0,0,0-.826.98v13.08a29.315,29.315,0,0,0,23.035,28.64,1.166,1.166,0,0,0,.43,0A29.337,29.337,0,0,0,263.5,7453.4v-13.07A1,1,0,0,0,262.673,7439.35ZM261.5,7453.4a27.511,27.511,0,0,1-21.252,26.65A27.491,27.491,0,0,1,219,7453.41v-12.24a63.428,63.428,0,0,0,21.253-8.08,64.163,64.163,0,0,0,21.251,8.08v12.23Zm-21.275-15.22a0.978,0.978,0,0,0,.493-0.13l0.01-.01h0.009a1,1,0,1,0-.985-1.74l-0.022.01A1,1,0,0,0,240.227,7438.18Zm-4.4.16a66.433,66.433,0,0,1-13.531,4.72,1,1,0,0,0-.775.97v9.36a24.415,24.415,0,0,0,.217,3.25,1,1,0,0,0,.989.87,0.61,0.61,0,0,0,.134-0.01,1,1,0,0,0,.857-1.12,22.637,22.637,0,0,1-.2-2.99v-8.57a67.329,67.329,0,0,0,13.169-4.68A1,1,0,1,0,235.828,7438.34Zm22.15,4.69a1,1,0,0,0-1,1v9.36a22.941,22.941,0,0,1-13.37,20.77,0.995,0.995,0,0,0,.418,1.9,1.026,1.026,0,0,0,.416-0.09,24.981,24.981,0,0,0,14.534-22.58v-9.36A1,1,0,0,0,257.978,7443.03Zm-17.946,32.42-0.038.01a1,1,0,0,0,.255,1.96,1.134,1.134,0,0,0,.257-0.03l0.038-.01a1,1,0,0,0,.709-1.22A0.987,0.987,0,0,0,240.032,7475.45Zm13.616-18.77a2.631,2.631,0,0,0-.4-3.27l-1.038-1.02a0.65,0.65,0,0,1-.192-0.51l0.1-1.46a2.632,2.632,0,0,0-1.876-2.72l-1.375-.42a0.648,0.648,0,0,1-.409-0.36l-0.575-1.33a2.661,2.661,0,0,0-2.939-1.54l-1.395.27a0.641,0.641,0,0,1-.533-0.13l-1.11-.9a2.656,2.656,0,0,0-3.326,0l-1.111.9a0.638,0.638,0,0,1-.532.13l-1.395-.27a2.661,2.661,0,0,0-2.939,1.54l-0.576,1.33a0.644,0.644,0,0,1-.408.36l-1.375.42a2.632,2.632,0,0,0-1.876,2.72l0.1,1.46a0.65,0.65,0,0,1-.192.51l-1.039,1.02a2.631,2.631,0,0,0-.4,3.27l0.768,1.25a0.649,0.649,0,0,1,.065.54l-0.449,1.4a2.625,2.625,0,0,0,1.169,3.08l1.244,0.74a0.652,0.652,0,0,1,.309.45l0.245,1.44a2.642,2.642,0,0,0,2.478,2.2l1.425,0.07a0.653,0.653,0,0,1,.485.25l0.869,1.15a2.667,2.667,0,0,0,2.117,1.04,2.571,2.571,0,0,0,1.111-.25l1.288-.6a0.66,0.66,0,0,1,.55,0l1.288,0.6a2.659,2.659,0,0,0,3.228-.79l0.868-1.15a0.655,0.655,0,0,1,.485-0.25l1.426-.07a2.642,2.642,0,0,0,2.478-2.2l0.245-1.44a0.652,0.652,0,0,1,.309-0.45l1.244-.74a2.626,2.626,0,0,0,1.169-3.08l-0.449-1.4a0.645,0.645,0,0,1,.065-0.54Zm-1.7-1.04-0.768,1.24a2.652,2.652,0,0,0-.266,2.2l0.449,1.4a0.651,0.651,0,0,1-.286.76l-1.244.74a2.618,2.618,0,0,0-1.259,1.83l-0.244,1.43a0.644,0.644,0,0,1-.608.54l-1.426.07a2.652,2.652,0,0,0-1.976,1.04l-0.869,1.15a0.652,0.652,0,0,1-.792.19l-1.288-.6a2.658,2.658,0,0,0-2.24,0l-1.289.6a0.65,0.65,0,0,1-.791-0.19l-0.869-1.15a2.654,2.654,0,0,0-1.977-1.04l-1.425-.07a0.644,0.644,0,0,1-.608-0.54l-0.244-1.43a2.621,2.621,0,0,0-1.259-1.83l-1.244-.74a0.653,0.653,0,0,1-.287-0.76l0.45-1.4a2.652,2.652,0,0,0-.266-2.2l-0.768-1.24a0.658,0.658,0,0,1,.1-0.81l1.038-1.02a2.637,2.637,0,0,0,.783-2.07l-0.1-1.46a0.645,0.645,0,0,1,.46-0.67l1.374-.42a2.613,2.613,0,0,0,1.665-1.48l0.576-1.33a0.669,0.669,0,0,1,.6-0.39,0.535,0.535,0,0,1,.123.02l1.4,0.27a2.658,2.658,0,0,0,2.173-.54l1.11-.9a0.655,0.655,0,0,1,.816,0l1.11,0.9a2.658,2.658,0,0,0,2.173.54l1.4-.27a0.656,0.656,0,0,1,.721.37l0.575,1.33a2.618,2.618,0,0,0,1.665,1.48l1.375,0.42a0.646,0.646,0,0,1,.46.67l-0.1,1.46a2.633,2.633,0,0,0,.783,2.07l1.038,1.02A0.658,0.658,0,0,1,251.947,7455.64Zm-9.1-4.25a1,1,0,0,0-1.361.38l-5.372,9.51a1,1,0,0,0,.379,1.36,0.968,0.968,0,0,0,.49.13,1,1,0,0,0,.871-0.5l5.372-9.52A1,1,0,0,0,242.851,7451.39Zm0.89,5.96a3,3,0,1,0,3,3A3,3,0,0,0,243.741,7457.35Zm0,4a1,1,0,1,1,1-1A1,1,0,0,1,243.741,7461.35Zm-6.982-11.7a3,3,0,1,0,3,3A3,3,0,0,0,236.759,7449.65Zm0,4a1,1,0,1,1,1-1A1,1,0,0,1,236.759,7453.65Z" transform="translate(-217 -7430.94)"/>
</svg>
